# xmcd
#
# Track frame offsets: 
#        150
#        602
#        23794
#        46803
#        61694
#        78206
#        94446
#        111102
#        129302
#        144881
#        174371
#        191079
#        216230
#        241069
#        258598
#
# Disc length: 3665 seconds
#
# Revision: 0
# Processed by: cddbd v1.5.1PL2 Copyright (c) Steve Scherf et al.
# Submitted via: ExactAudioCopy v0.95b3
#
DISCID=bd0e4f0f
DTITLE=R. L. Burnside - Wish I Was In Heaven Sitting Down
DYEAR=1900
DGENRE=Blues
TTITLE0=Blank
TTITLE1=Hard Time Killing Floor
TTITLE2=Got Messed Up
TTITLE3=Miss Maybelle
TTITLE4=Wish I Was In Heaven Sitting Down
TTITLE5=Too Many Ups
TTITLE6=Nothin' Man
TTITLE7=See What My Buddy Done
TTITLE8=My Eyes Keep Me In Trouble
TTITLE9=Bad Luck City
TTITLE10=Chain of Fools
TTITLE11=R.L.'s Story
TTITLE12=blank
TTITLE13=Perkel Up
TTITLE14=You Don't Know My Mind
EXTD=
EXTT0=
EXTT1=
EXTT2=
EXTT3=
EXTT4=
EXTT5=
EXTT6=
EXTT7=
EXTT8=
EXTT9=
EXTT10=
EXTT11=
EXTT12=
EXTT13=
EXTT14=
PLAYORDER=
